PathFileType	4	(X/Y/Z)	/home/abdul/Desktop/myosuite/custom_workspace/IK/output/S19_12_3.trc
DataRate	CameraRate	NumFrames	NumMarkers	Units	OrigDataRate	OrigDataStartFrame	OrigNumFrames
200.0	200.0	40	3	mm	200.0	371	1483
Frame#	Time	V_Shoulder			V_Elbow			V_Wrist		
		X1	Y1	Z1	X2	Y2	Z2	X3	Y3	Z3

371	1.85	-96.11315293551992	626.3279775782208	313.99031096072423				-66.2746090016962	225.4981059712474	45.08786066559251
372	1.855	-96.1126213049903	626.4483490522425	314.03079544724295				-66.31937308406376	226.61002154292032	45.52386245563239
373	1.86	-96.11211502622028	626.5736023235673	314.072882396626				-66.37166962499086	227.7384146766812	45.96691889498102
374	1.865	-96.11165131936825	626.7037855273062	314.1165651888563				-66.43195287327197	228.882885824519	46.41700620998753
375	1.87	-96.1112479052034	626.8389455679425	314.1618364725197				-66.50067586757986	230.0430301071917	46.87410977350826
376	1.875	-96.11092300144156	626.9791280744254	314.20868816319654				-66.57828915244815	231.21843820845552	47.3382246011938
377	1.88	-96.11069531815663	627.1243773561513	314.25711144192024				-66.6652394873249	232.4086972490245	47.80935580643151
378	1.885	-96.11058405220399	627.2747363598144	314.30709675375607				-66.76196855276501	233.6133916368227	48.2875190110566
379	1.89	-96.11060888059484	627.4302466271033	314.3586338065506				-66.86891165781329	234.83210389030143	48.77274070909538
380	1.895	-96.11078995276317	627.5909482532169	314.41171156990816				-66.98649645259819	236.06441543182103	49.265058580970944
381	1.9	-96.11114788167095	627.7568798461712	314.4663182744448				-67.11514165010982	237.3099073483402	49.76452175578332
382	1.905	-96.11170373370051	627.9280784868697	314.52244141137606				-67.25525576107349	238.56816111691205	50.27119101947265
383	1.91	-96.11247901728716	628.1045796899052	314.58006773248934				-67.40723584575544	239.83875929275226	50.7851389668849
384	1.915	-96.1134956702495	628.286417365062	314.6391832505548				-67.57146628644875	241.1212861579237	51.30645009598411
385	1.92	-96.11477604577959	628.4736237794908	314.6997732402263				-67.74831758428773	242.41532832896584	51.83522084269218
386	1.925	-96.11634289705945	628.6662295205222	314.7618222394804				-67.9381451839279	243.72047532208848	52.37155955508651
387	1.93	-96.11821936047652	628.8642634590914	314.82531405164553				-68.14128832950823	245.0363200748424	52.91558640594571
388	1.935	-96.12042893741447	629.0677527137477	314.89023174806556				-68.35806895518213	246.36245942347693	53.467433242904164
389	1.94	-96.12299547460299	629.2767226152223	314.95655767144376				-68.58879061336698	247.6984945354884	54.02724337575489
390	1.945	-96.12594314301437	629.4911966715321	315.02427343991036				-68.83373744371674	249.04403129715826	54.59517130072734
391	1.95	-96.12929641530127	629.7111965336006	315.093359951853				-69.0931731856731	250.39868065616628	55.17138236185966
392	1.955	-96.13308004177577	629.9367419613798	315.16379739154814				-69.36734023729534	251.7620589196492	55.75605234988392
393	1.96	-96.13731902493548	630.1678507904586	315.23556523562905				-69.6564587629101	253.13378800834786	56.34936703934446
394	1.965	-96.14203859254906	630.4045388991552	315.30864226042115				-69.96072585196103	254.51349566775303	56.951521664974585
395	1.97	-96.14726416931923	630.6468201760863	315.3830065501745				-70.2803147312737	255.90081563741222	57.56272033866165
396	1.975	-96.15302134714722	630.8947064882165	315.45863550621795				-70.61537403278638	257.2953877798018	58.1831754086353
397	1.98	-96.15933585402917	631.1482076493967	315.53550585705807				-70.96602711863062	258.6968581703949	58.81310676281562
398	1.985	-96.16623352162043	631.4073313894061	315.61359366944095				-71.33237146527958	260.1048791507669	59.452741078556016
399	1.99	-96.17374025151004	631.6720833235138	315.6928743603925				-71.71447810831566	261.51910934677414	60.1023110213078
400	1.995	-96.18188198025308	631.9424669225899	315.7733227102497				-72.11239114920492	262.93921365401945	60.762054395018424
401	2.0	-96.19068464321448	632.2184834837954	315.85491287668884				-72.52612732530088	264.3648631929749	61.4322132473509
402	2.005	-96.20017413728311	632.5001321018912	315.9376184097586				-72.95567564413909	265.79573523627073	62.11303293307705
403	2.01	-96.21037628252056	632.7874096412087	316.0214122679163				-73.40099708292328	267.2315131107783	62.80476113924943
404	2.015	-96.2213167828138	633.080310708338	316.10626683506626				-73.86202435394546	268.67188607721374	63.50764687599584
405	2.02	-96.23302118560589	633.3788276255858	316.1921539385955				-74.33866173652706	270.11654919006395	64.22193943700239
406	2.025	-96.24551484078374	633.6829504052733	316.27904486839407				-74.8307849759142	271.5652031406948	64.94788733395735
407	2.03	-96.25882285880557	633.9926667249385	316.3669103968518				-75.33824124940892	273.0175540865364	65.68573720941453
408	2.035	-96.27297006815594	634.3079619035245	316.4557207998111				-75.8608491998698	274.47331346925364	66.43573273270249
409	2.04	-96.28798097221848	634.6288188786308	316.54544587846163				-76.39839903656853	275.932197824806	67.19811348365157
410	2.045	-96.30387970566126	634.9552181849193	316.63605498214946				-76.95065270324508	277.39392858827193	67.97311382903399
